<svg xmlns="http://www.w3.org/2000/svg" xmlns:xlink="http://www.w3.org/1999/xlink" width="32" zoomAndPan="magnify" viewBox="0 0 30 30.000001" height="32" preserveAspectRatio="xMidYMid meet" version="1.2"><defs><clipPath id="eafa000e1a"><path d="M 0.484375 0 L 29.515625 0 L 29.515625 29.03125 L 0.484375 29.03125 Z M 0.484375 0 "/></clipPath></defs><g id="b395d59028"><g clip-rule="nonzero" clip-path="url(#eafa000e1a)"><path style=" stroke:none;fill-rule:nonzero;fill:#ff0000;fill-opacity:1;" d="M 28.636719 7.363281 C 27.875 4.558594 24.957031 1.640625 22.152344 0.878906 C 20.433594 0.449219 18.128906 0.0078125 15 0 C 11.871094 0.0078125 9.566406 0.449219 7.847656 0.878906 C 5.042969 1.640625 2.125 4.558594 1.363281 7.363281 C 0.933594 9.082031 0.492188 11.386719 0.484375 14.515625 C 0.492188 17.644531 0.933594 19.949219 1.363281 21.667969 C 2.125 24.476562 5.042969 27.390625 7.847656 28.15625 C 9.566406 28.582031 11.875 29.023438 15 29.03125 C 18.128906 29.023438 20.433594 28.582031 22.152344 28.15625 C 24.957031 27.390625 27.875 24.476562 28.636719 21.667969 C 29.066406 19.949219 29.507812 17.644531 29.515625 14.515625 C 29.507812 11.386719 29.066406 9.082031 28.636719 7.363281 Z M 24.386719 9.484375 L 21.28125 12.589844 C 21.199219 12.675781 21.101562 12.746094 20.988281 12.792969 C 20.875 12.84375 20.761719 12.867188 20.636719 12.867188 C 20.515625 12.871094 20.398438 12.847656 20.285156 12.800781 C 20.171875 12.757812 20.074219 12.691406 19.988281 12.605469 C 19.902344 12.519531 19.835938 12.417969 19.789062 12.304688 C 19.742188 12.191406 19.722656 12.074219 19.722656 11.953125 C 19.722656 11.832031 19.75 11.714844 19.796875 11.601562 C 19.847656 11.492188 19.914062 11.394531 20.003906 11.308594 L 21.550781 9.761719 L 18.59375 9.761719 C 18.238281 9.761719 17.894531 9.832031 17.566406 9.96875 C 17.238281 10.101562 16.945312 10.296875 16.695312 10.546875 C 16.441406 10.800781 16.25 11.089844 16.113281 11.417969 C 15.976562 11.746094 15.90625 12.089844 15.90625 12.445312 L 15.90625 23.265625 C 15.90625 23.511719 15.820312 23.722656 15.648438 23.898438 C 15.476562 24.074219 15.265625 24.164062 15.019531 24.167969 C 14.765625 24.167969 14.546875 24.078125 14.367188 23.898438 C 14.1875 23.71875 14.097656 23.5 14.097656 23.242188 L 14.097656 12.445312 C 14.097656 12.089844 14.03125 11.746094 13.894531 11.417969 C 13.757812 11.089844 13.566406 10.796875 13.3125 10.546875 C 13.0625 10.296875 12.769531 10.101562 12.441406 9.964844 C 12.113281 9.828125 11.769531 9.761719 11.414062 9.761719 L 8.449219 9.761719 L 9.992188 11.308594 C 10.171875 11.484375 10.257812 11.695312 10.257812 11.945312 C 10.257812 12.195312 10.171875 12.410156 9.996094 12.585938 C 9.820312 12.765625 9.605469 12.851562 9.355469 12.851562 C 9.105469 12.851562 8.890625 12.765625 8.714844 12.589844 L 5.621094 9.484375 C 5.449219 9.3125 5.359375 9.101562 5.359375 8.855469 C 5.359375 8.609375 5.449219 8.402344 5.621094 8.226562 L 8.699219 5.144531 C 8.878906 4.972656 9.089844 4.886719 9.335938 4.886719 C 9.585938 4.890625 9.796875 4.976562 9.972656 5.152344 C 10.144531 5.328125 10.234375 5.539062 10.234375 5.785156 C 10.238281 6.035156 10.152344 6.246094 9.980469 6.421875 L 8.449219 7.953125 L 11.417969 7.953125 C 12.121094 7.953125 12.789062 8.113281 13.421875 8.425781 C 14.054688 8.742188 14.582031 9.183594 15.003906 9.746094 C 15.429688 9.183594 15.957031 8.742188 16.585938 8.425781 C 17.21875 8.113281 17.886719 7.953125 18.59375 7.953125 L 21.546875 7.953125 L 20.019531 6.421875 C 19.84375 6.246094 19.757812 6.035156 19.761719 5.785156 C 19.761719 5.539062 19.851562 5.328125 20.023438 5.152344 C 20.199219 4.976562 20.410156 4.890625 20.660156 4.886719 C 20.90625 4.886719 21.117188 4.972656 21.296875 5.144531 L 24.386719 8.230469 C 24.5625 8.402344 24.648438 8.609375 24.648438 8.855469 C 24.648438 9.101562 24.5625 9.308594 24.386719 9.484375 Z M 24.386719 9.484375 "/></g></g></svg>