<svg xmlns="http://www.w3.org/2000/svg" xmlns:xlink="http://www.w3.org/1999/xlink" width="512" zoomAndPan="magnify" viewBox="0 0 384 383.999986" height="512" preserveAspectRatio="xMidYMid meet" version="1.2"><g id="d1d3849bd7"><path style=" stroke:none;fill-rule:nonzero;fill:#ff0000;fill-opacity:1;" d="M 372.390625 97.394531 C 362.316406 60.285156 323.722656 21.691406 286.613281 11.617188 C 263.863281 5.941406 233.378906 0.0976562 192 0 C 150.628906 0.105469 120.140625 5.941406 97.394531 11.617188 C 60.285156 21.699219 21.691406 60.285156 11.617188 97.394531 C 5.941406 120.140625 0.105469 150.628906 0 192 C 0.105469 233.378906 5.941406 263.863281 11.617188 286.613281 C 21.691406 323.722656 60.285156 362.308594 97.394531 372.390625 C 120.140625 378.066406 150.644531 383.902344 192 384.007812 C 233.378906 383.902344 263.863281 378.066406 286.613281 372.390625 C 323.722656 362.308594 362.316406 323.722656 372.390625 286.613281 C 378.066406 263.863281 383.902344 233.363281 384.007812 192 C 383.902344 150.628906 378.066406 120.140625 372.390625 97.394531 Z M 316.140625 125.429688 L 275.09375 166.5 C 274.542969 167.078125 273.941406 167.59375 273.285156 168.050781 C 272.632812 168.507812 271.941406 168.898438 271.210938 169.214844 C 270.476562 169.535156 269.722656 169.777344 268.941406 169.945312 C 268.164062 170.113281 267.375 170.203125 266.574219 170.210938 C 265.777344 170.222656 264.988281 170.152344 264.203125 170.003906 C 263.417969 169.855469 262.660156 169.628906 261.917969 169.328125 C 261.179688 169.027344 260.480469 168.65625 259.8125 168.214844 C 259.148438 167.773438 258.535156 167.273438 257.972656 166.707031 C 257.40625 166.144531 256.90625 165.53125 256.464844 164.867188 C 256.023438 164.199219 255.652344 163.5 255.351562 162.761719 C 255.050781 162.019531 254.824219 161.261719 254.675781 160.476562 C 254.527344 159.691406 254.457031 158.902344 254.46875 158.105469 C 254.476562 157.304688 254.566406 156.519531 254.734375 155.738281 C 254.902344 154.957031 255.144531 154.203125 255.464844 153.472656 C 255.78125 152.738281 256.171875 152.046875 256.628906 151.394531 C 257.085938 150.738281 257.601562 150.136719 258.179688 149.585938 L 278.625 129.136719 L 239.519531 129.136719 C 238.359375 129.132812 237.199219 129.191406 236.042969 129.304688 C 234.882812 129.417969 233.734375 129.589844 232.597656 129.816406 C 231.457031 130.042969 230.328125 130.324219 229.21875 130.660156 C 228.105469 130.996094 227.011719 131.386719 225.9375 131.832031 C 224.863281 132.277344 223.8125 132.773438 222.789062 133.320312 C 221.761719 133.867188 220.765625 134.460938 219.800781 135.109375 C 218.832031 135.753906 217.902344 136.445312 217.003906 137.179688 C 216.101562 137.917969 215.242188 138.695312 214.417969 139.519531 C 213.597656 140.339844 212.816406 141.199219 212.078125 142.097656 C 211.339844 142.996094 210.648438 143.925781 210.003906 144.890625 C 209.355469 145.859375 208.757812 146.851562 208.207031 147.878906 C 207.660156 148.902344 207.164062 149.949219 206.71875 151.023438 C 206.269531 152.097656 205.878906 153.191406 205.539062 154.300781 C 205.203125 155.414062 204.917969 156.539062 204.691406 157.679688 C 204.460938 158.820312 204.289062 159.96875 204.175781 161.125 C 204.058594 162.28125 204 163.441406 204 164.601562 L 204 307.710938 C 204 308.484375 203.925781 309.253906 203.777344 310.015625 C 203.628906 310.773438 203.40625 311.515625 203.113281 312.230469 C 202.820312 312.949219 202.460938 313.632812 202.035156 314.28125 C 201.609375 314.929688 201.125 315.527344 200.582031 316.082031 C 200.039062 316.636719 199.445312 317.132812 198.808594 317.570312 C 198.167969 318.007812 197.492188 318.382812 196.78125 318.6875 C 196.070312 318.996094 195.335938 319.230469 194.578125 319.394531 C 193.820312 319.558594 193.050781 319.648438 192.277344 319.664062 C 191.476562 319.664062 190.679688 319.589844 189.894531 319.433594 C 189.105469 319.277344 188.34375 319.042969 187.601562 318.738281 C 186.859375 318.429688 186.15625 318.054688 185.488281 317.609375 C 184.824219 317.160156 184.207031 316.65625 183.640625 316.085938 C 183.074219 315.519531 182.566406 314.902344 182.121094 314.234375 C 181.679688 313.566406 181.304688 312.859375 181 312.117188 C 180.691406 311.375 180.464844 310.613281 180.308594 309.824219 C 180.15625 309.035156 180.078125 308.242188 180.082031 307.441406 L 180.082031 164.601562 C 180.082031 163.441406 180.027344 162.28125 179.910156 161.121094 C 179.796875 159.964844 179.628906 158.816406 179.402344 157.675781 C 179.171875 156.535156 178.890625 155.410156 178.554688 154.296875 C 178.214844 153.183594 177.824219 152.089844 177.378906 151.015625 C 176.9375 149.941406 176.4375 148.894531 175.890625 147.867188 C 175.34375 146.84375 174.746094 145.847656 174.101562 144.878906 C 173.453125 143.914062 172.761719 142.980469 172.023438 142.082031 C 171.289062 141.183594 170.507812 140.320312 169.6875 139.5 C 168.863281 138.675781 168.003906 137.898438 167.105469 137.160156 C 166.207031 136.421875 165.273438 135.730469 164.308594 135.082031 C 163.339844 134.4375 162.34375 133.839844 161.320312 133.292969 C 160.292969 132.742188 159.242188 132.246094 158.167969 131.800781 C 157.097656 131.355469 156.003906 130.964844 154.890625 130.628906 C 153.777344 130.289062 152.652344 130.007812 151.511719 129.78125 C 150.371094 129.554688 149.222656 129.382812 148.066406 129.269531 C 146.90625 129.15625 145.746094 129.097656 144.585938 129.097656 L 105.328125 129.097656 L 125.78125 149.550781 C 126.339844 150.105469 126.835938 150.710938 127.273438 151.363281 C 127.710938 152.015625 128.082031 152.707031 128.382812 153.429688 C 128.683594 154.15625 128.910156 154.90625 129.066406 155.675781 C 129.21875 156.445312 129.296875 157.226562 129.296875 158.011719 C 129.300781 158.796875 129.222656 159.578125 129.070312 160.347656 C 128.917969 161.117188 128.691406 161.867188 128.390625 162.59375 C 128.09375 163.320312 127.722656 164.011719 127.289062 164.664062 C 126.851562 165.320312 126.355469 165.925781 125.800781 166.480469 C 125.246094 167.039062 124.640625 167.535156 123.988281 167.972656 C 123.335938 168.410156 122.644531 168.777344 121.921875 169.082031 C 121.195312 169.382812 120.445312 169.609375 119.675781 169.765625 C 118.902344 169.917969 118.125 169.996094 117.339844 169.996094 C 116.554688 170 115.773438 169.921875 115.003906 169.769531 C 114.234375 169.617188 113.484375 169.390625 112.757812 169.089844 C 112.03125 168.789062 111.339844 168.421875 110.6875 167.988281 C 110.03125 167.550781 109.425781 167.054688 108.871094 166.5 L 67.949219 125.46875 C 67.402344 124.921875 66.917969 124.324219 66.488281 123.683594 C 66.058594 123.039062 65.695312 122.359375 65.398438 121.644531 C 65.105469 120.929688 64.882812 120.195312 64.730469 119.4375 C 64.582031 118.675781 64.503906 117.910156 64.503906 117.140625 C 64.503906 116.367188 64.582031 115.601562 64.730469 114.839844 C 64.882812 114.082031 65.105469 113.347656 65.398438 112.632812 C 65.695312 111.917969 66.058594 111.238281 66.488281 110.59375 C 66.917969 109.953125 67.402344 109.355469 67.949219 108.808594 L 108.675781 68.039062 C 109.234375 67.496094 109.839844 67.011719 110.492188 66.585938 C 111.144531 66.160156 111.832031 65.800781 112.554688 65.507812 C 113.277344 65.21875 114.019531 65 114.785156 64.851562 C 115.550781 64.707031 116.324219 64.636719 117.101562 64.640625 C 117.882812 64.648438 118.652344 64.726562 119.417969 64.882812 C 120.179688 65.039062 120.921875 65.265625 121.640625 65.566406 C 122.359375 65.867188 123.042969 66.234375 123.691406 66.667969 C 124.339844 67.101562 124.9375 67.597656 125.488281 68.148438 C 126.039062 68.699219 126.53125 69.296875 126.964844 69.945312 C 127.398438 70.59375 127.765625 71.277344 128.066406 71.996094 C 128.367188 72.714844 128.59375 73.453125 128.75 74.21875 C 128.90625 74.980469 128.984375 75.753906 128.988281 76.53125 C 128.996094 77.3125 128.921875 78.085938 128.777344 78.851562 C 128.628906 79.617188 128.410156 80.359375 128.121094 81.082031 C 127.828125 81.804688 127.46875 82.492188 127.042969 83.144531 C 126.617188 83.796875 126.132812 84.402344 125.585938 84.960938 L 105.335938 105.210938 L 144.601562 105.210938 C 146.894531 105.210938 149.179688 105.34375 151.460938 105.609375 C 153.738281 105.875 155.992188 106.269531 158.226562 106.796875 C 160.460938 107.324219 162.65625 107.976562 164.8125 108.757812 C 166.96875 109.539062 169.074219 110.441406 171.125 111.46875 C 173.175781 112.492188 175.164062 113.632812 177.082031 114.890625 C 179.003906 116.144531 180.84375 117.507812 182.609375 118.976562 C 184.371094 120.445312 186.042969 122.007812 187.621094 123.671875 C 189.203125 125.335938 190.683594 127.082031 192.058594 128.917969 C 193.4375 127.082031 194.917969 125.335938 196.5 123.671875 C 198.078125 122.007812 199.75 120.445312 201.511719 118.976562 C 203.273438 117.507812 205.117188 116.144531 207.035156 114.890625 C 208.957031 113.632812 210.941406 112.492188 212.996094 111.46875 C 215.046875 110.441406 217.152344 109.539062 219.308594 108.757812 C 221.464844 107.976562 223.660156 107.324219 225.894531 106.796875 C 228.125 106.269531 230.382812 105.875 232.660156 105.609375 C 234.941406 105.34375 237.226562 105.210938 239.519531 105.210938 L 278.617188 105.210938 L 258.367188 84.960938 C 257.824219 84.402344 257.339844 83.796875 256.910156 83.144531 C 256.484375 82.492188 256.128906 81.804688 255.835938 81.082031 C 255.542969 80.359375 255.324219 79.617188 255.179688 78.851562 C 255.03125 78.085938 254.960938 77.3125 254.964844 76.53125 C 254.96875 75.753906 255.050781 74.984375 255.207031 74.21875 C 255.359375 73.457031 255.589844 72.714844 255.890625 71.996094 C 256.191406 71.277344 256.558594 70.59375 256.992188 69.945312 C 257.425781 69.296875 257.917969 68.699219 258.46875 68.148438 C 259.019531 67.597656 259.617188 67.105469 260.265625 66.667969 C 260.910156 66.234375 261.59375 65.867188 262.3125 65.566406 C 263.03125 65.265625 263.773438 65.039062 264.539062 64.882812 C 265.300781 64.726562 266.074219 64.648438 266.851562 64.640625 C 267.632812 64.636719 268.402344 64.707031 269.167969 64.855469 C 269.933594 65 270.679688 65.21875 271.402344 65.507812 C 272.125 65.800781 272.8125 66.160156 273.464844 66.585938 C 274.117188 67.011719 274.722656 67.496094 275.28125 68.039062 L 316.164062 108.847656 C 316.707031 109.390625 317.195312 109.984375 317.625 110.621094 C 318.050781 111.261719 318.414062 111.9375 318.710938 112.648438 C 319.003906 113.359375 319.226562 114.09375 319.378906 114.847656 C 319.527344 115.605469 319.605469 116.367188 319.605469 117.136719 C 319.605469 117.90625 319.53125 118.671875 319.378906 119.425781 C 319.230469 120.179688 319.007812 120.914062 318.714844 121.625 C 318.417969 122.335938 318.058594 123.011719 317.628906 123.652344 C 317.203125 124.292969 316.714844 124.886719 316.171875 125.429688 Z M 316.140625 125.429688 "/></g></svg>